<svg id="Capa_1" enable-background="new 0 0 512 512" height="512" viewBox="0 0 512 512" width="512" xmlns="http://www.w3.org/2000/svg" xmlns:xlink="http://www.w3.org/1999/xlink"><linearGradient id="SVGID_1_" gradientUnits="userSpaceOnUse" x1="420.853" x2="181.854" y1="71.886" y2="442.886"><stop offset="0" stop-color="#d2deff" stop-opacity="0"/><stop offset="1" stop-color="#b7c5ff"/></linearGradient><g><path d="m364.823 45.465c-69.098-27.035-164.784-16.764-217.662 31.51-37.336 34.085-8.439 43.8 17.016 106.17 18.423 45.14-164.177 38.927-164.177 120.495 0 94.299 132.251 76.423 181.329 87.218 75.036 16.504 140.496 78.242 220.668 70.103 69.795-7.086 96.403-61.855 106.109-124.642 18.082-116.976-26.329-245.094-143.283-290.854z" fill="url(#SVGID_1_)"/><g><path d="m371.749 81.18h-231.54c-11.04 0-20 8.95-20 20v243.272c-5.504.022-9.959 4.489-9.959 9.998v17.08c0 7.518 3.993 14.085 9.959 17.751v52.039c0 11.05 8.96 20 20 20h231.54c11.05 0 20-8.95 20-20v-340.14c0-11.05-8.95-20-20-20z" fill="#2626bc" opacity=".1"/><g><path d="m391.749 76.18v340.14c0 11.05-8.95 20-20 20h-231.54c-11.04 0-20-8.95-20-20v-340.14c0-11.05 8.96-20 20-20h231.54c11.05 0 20 8.95 20 20z" fill="#fff"/><g><path d="m361.259 94.54v252.01c0 11.49-9.33 20.82-20.82 20.82h-189.73v-272.83c0-5.53 4.47-10 10-10h190.55c5.52 0 10 4.47 10 10z" fill="#fff"/><path d="m351.259 94.54v252.01c0 5.966-4.854 10.82-10.82 10.82h-179.73v-262.83zm0-10h-190.55c-5.53 0-10 4.47-10 10v272.83h189.73c11.49 0 20.82-9.33 20.82-20.82v-252.01c0-5.53-4.48-10-10-10z" fill="#2626bc"/><g><g><path d="m317.032 333.336c-.132 0-.263-.006-.396-.017-1.697-.149-3.166-1.24-3.799-2.822l-4.888-12.22c-.099-.248-.336-.408-.603-.408-2.494 0-4.516-2.022-4.516-4.516s2.022-4.516 4.516-4.516c3.982 0 7.51 2.389 8.989 6.086l1.569 3.924 16.106-25.951c1.315-2.12 4.1-2.771 6.219-1.456s2.771 4.099 1.455 6.219l-20.818 33.544c-.826 1.333-2.282 2.133-3.834 2.133z" fill="#2626bc"/></g><g><g><path d="m186.373 312.507h-11.52c-2.762 0-5-2.239-5-5s2.238-5 5-5h11.52c2.762 0 5 2.239 5 5s-2.239 5-5 5z" fill="#2626bc"/></g></g></g><path d="m311.699 100.799h-111.436c-5.523 0-10-4.477-10-10v-34.62h131.436v34.62c0 5.523-4.478 10-10 10z" fill="#6583fe"/></g><path d="m371.749 441.321h-231.537c-13.785 0-25-11.215-25-25v-143.091c0-2.761 2.239-5 5-5s5 2.239 5 5v143.09c0 8.271 6.729 15 15 15h231.537c8.271 0 15-6.729 15-15v-340.141c0-8.271-6.729-15-15-15h-71.627c-2.761 0-5-2.239-5-5s2.239-5 5-5h71.627c13.785 0 25 11.215 25 25v340.142c0 13.785-11.215 25-25 25z" fill="#2626bc"/><path d="m120.212 248.978c-2.761 0-5-2.239-5-5v-167.799c0-13.785 11.215-25 25-25h130.658c2.761 0 5 2.239 5 5s-2.239 5-5 5h-130.658c-8.271 0-15 6.729-15 15v167.799c0 2.761-2.238 5-5 5z" fill="#2626bc"/><path d="m341.641 367.37h-210.56c-11.5 0-20.83-9.33-20.83-20.84v-17.08c0-5.523 4.477-10 10-10h190.56c5.523 0 10 4.477 10 10v17.08c0 11.51 9.33 20.84 20.83 20.84z" fill="#6583fe"/><g fill="#2626bc"><g><path d="m228.389 84.535c0 2.583-2.094 4.678-4.678 4.678-2.583 0-4.678-2.094-4.678-4.678s2.094-4.678 4.678-4.678c2.583 0 4.678 2.095 4.678 4.678z"/><path d="m213.588 84.535c0 2.583-2.094 4.678-4.678 4.678-2.583 0-4.678-2.094-4.678-4.678s2.094-4.678 4.678-4.678 4.678 2.095 4.678 4.678z"/></g><g><path d="m307.729 84.535c0 2.583-2.094 4.678-4.678 4.678s-4.678-2.094-4.678-4.678 2.094-4.678 4.678-4.678 4.678 2.095 4.678 4.678z"/><path d="m292.928 84.535c0 2.583-2.094 4.678-4.678 4.678s-4.678-2.094-4.678-4.678 2.094-4.678 4.678-4.678 4.678 2.095 4.678 4.678z"/></g></g><g><g><path d="m317.032 223.162c-.132 0-.263-.006-.396-.017-1.697-.149-3.166-1.24-3.799-2.822l-4.888-12.22c-.099-.248-.336-.408-.603-.408-2.494 0-4.516-2.022-4.516-4.516s2.022-4.516 4.516-4.516c3.982 0 7.51 2.389 8.989 6.086l1.569 3.924 16.106-25.951c1.315-2.12 4.1-2.771 6.219-1.456s2.771 4.1 1.455 6.219l-20.818 33.543c-.826 1.334-2.282 2.134-3.834 2.134z" fill="#2626bc"/></g><g><g><path d="m231.373 222.364h-56.52c-2.762 0-5-2.239-5-5s2.238-5 5-5h56.52c2.762 0 5 2.239 5 5s-2.239 5-5 5z" fill="#2626bc"/></g><g><path d="m277.132 222.364h-21.519c-2.762 0-5-2.239-5-5s2.238-5 5-5h21.519c2.762 0 5 2.239 5 5s-2.238 5-5 5z" fill="#2626bc"/></g><g><path d="m186.373 202.332h-11.52c-2.762 0-5-2.239-5-5s2.238-5 5-5h11.52c2.762 0 5 2.239 5 5s-2.239 5-5 5z" fill="#2626bc"/></g></g></g><g><g><path d="m317.032 278.249c-.132 0-.263-.005-.396-.017-1.697-.149-3.166-1.24-3.799-2.822l-4.888-12.22c-.099-.248-.336-.408-.603-.408-2.494 0-4.516-2.022-4.516-4.516s2.022-4.516 4.516-4.516c3.982 0 7.51 2.389 8.989 6.086l1.569 3.924 16.106-25.951c1.315-2.12 4.1-2.771 6.219-1.456 2.119 1.316 2.771 4.1 1.455 6.219l-20.818 33.543c-.826 1.334-2.282 2.134-3.834 2.134z" fill="#2626bc"/></g><g><g><path d="m231.373 277.451h-56.52c-2.762 0-5-2.239-5-5s2.238-5 5-5h56.52c2.762 0 5 2.239 5 5s-2.239 5-5 5z" fill="#2626bc"/></g><g><path d="m277.132 277.451h-21.519c-2.762 0-5-2.239-5-5s2.238-5 5-5h21.519c2.762 0 5 2.239 5 5s-2.238 5-5 5z" fill="#2626bc"/></g><g><path d="m186.373 257.419h-11.52c-2.762 0-5-2.239-5-5s2.238-5 5-5h11.52c2.762 0 5 2.239 5 5s-2.239 5-5 5z" fill="#2626bc"/></g></g></g><g><path d="m231.452 134.482 7.068 16.891-7.068 16.891c-1.2 2.868 1.695 5.743 4.555 4.521l42.676-18.228c2.804-1.197 2.804-5.172 0-6.369l-42.676-18.228c-2.86-1.221-5.755 1.654-4.555 4.522z" fill="#6583fe"/></g></g><g fill="#6583fe"><path d="m90.006 211.826c-3.713 0-7.426-1.414-10.253-4.24-5.653-5.654-5.653-14.852 0-20.506s14.853-5.654 20.506 0 5.653 14.853 0 20.506c-2.826 2.826-6.539 4.24-10.253 4.24zm.001-18.992c-1.153 0-2.305.438-3.182 1.316-1.755 1.754-1.755 4.609 0 6.364 1.754 1.755 4.61 1.755 6.364 0 1.755-1.754 1.755-4.609 0-6.364-.877-.877-2.03-1.316-3.182-1.316z"/><path d="m371.259 481.196c-3.873 0-7.514-1.508-10.253-4.248-5.653-5.653-5.653-14.852 0-20.505s14.853-5.654 20.506 0c5.653 5.654 5.653 14.853 0 20.506-2.738 2.739-6.379 4.247-10.253 4.247zm.001-18.998c-1.153 0-2.305.438-3.182 1.316-1.754 1.754-1.754 4.609 0 6.364.85.851 1.98 1.318 3.182 1.318s2.332-.468 3.182-1.318c1.754-1.755 1.754-4.61 0-6.365-.877-.876-2.03-1.315-3.182-1.315z"/><path d="m332.098 475.82c-1.28 0-2.559-.488-3.536-1.464l-5.964-5.964-5.964 5.964c-1.953 1.952-5.118 1.952-7.071 0-1.953-1.953-1.953-5.119 0-7.071l9.5-9.5c1.953-1.952 5.118-1.952 7.071 0l9.5 9.5c1.953 1.953 1.953 5.119 0 7.071-.977.975-2.256 1.464-3.536 1.464z"/><path d="m90.007 158.95c-1.28 0-2.559-.488-3.536-1.464l-5.964-5.964-5.964 5.964c-1.953 1.952-5.118 1.952-7.071 0-1.953-1.953-1.953-5.119 0-7.071l9.5-9.5c1.953-1.952 5.118-1.952 7.071 0l9.5 9.5c1.953 1.953 1.953 5.119 0 7.071-.977.975-2.256 1.464-3.536 1.464z"/><path d="m424.499 51.47c-1.28 0-2.559-.488-3.536-1.464l-5.964-5.964-5.964 5.964c-1.953 1.952-5.118 1.952-7.071 0-1.953-1.953-1.953-5.119 0-7.071l9.5-9.5c1.953-1.952 5.118-1.952 7.071 0l9.5 9.5c1.953 1.953 1.953 5.119 0 7.071-.977.976-2.257 1.464-3.536 1.464z"/></g></g></g></svg>