<svg id="Capa_1" enable-background="new 0 0 512 512" height="512" viewBox="0 0 512 512" width="512" xmlns="http://www.w3.org/2000/svg" xmlns:xlink="http://www.w3.org/1999/xlink"><linearGradient id="SVGID_1_" gradientUnits="userSpaceOnUse" x1="283.281" x2="235.281" y1="391.693" y2="123.027"><stop offset="0" stop-color="#d2deff" stop-opacity="0"/><stop offset="1" stop-color="#b7c5ff"/></linearGradient><g><path d="m501.873 124.251c-22.357-56.888-91.226-91.003-149.556-68.427-68.57 26.539-43.27 131.236-104.983 153.088-32.669 11.568-80.962-31.644-113.969-38.27-60.821-12.21-115.881 30.705-129.439 90.134-13.832 60.63 8.353 141.61 74.967 158.066 79.35 19.602 120.683-51.729 187.249-72.211 68.311-21.019 144.263 28.622 200.814-31.776 41.78-44.621 57.055-134.273 34.917-190.604z" fill="url(#SVGID_1_)"/><g><path d="m281.19 404.833 36.152-79.781c11.783-26.004 26.238-50.665 42.389-74.206 13.862-20.204 21.975-44.661 21.975-71.015 0-70.608-58.214-127.619-129.264-125.656-67.551 1.866-121.874 57.562-122.146 125.139-.108 26.764 8.152 51.59 22.31 72.02 16.329 23.563 30.615 48.477 42.447 74.589l35.757 78.91c-101.162 2.529-179.5 20.083-179.5 41.364 0 23.018 91.642 41.678 204.689 41.678s204.689-18.66 204.689-41.678c0-21.281-78.337-38.835-179.498-41.364z" fill="#2626bc" opacity=".1"/><g><ellipse cx="255.999" cy="421.197" fill="#6583fe" rx="204.689" ry="41.678"/><g fill="#fff"><path d="m248.429 379.545v9.691c0 4.821-3.44 8.956-8.18 9.833l-17.579 3.253c-4.741.877-8.181 5.012-8.181 9.833v9.231c0 5.523-4.477 10-10 10h-20.648c-2.652 0-5.196-1.054-7.071-2.929l-9.122-9.122c-1.875-1.875-4.419-2.929-7.071-2.929h-27.492c-3.466 0-6.685-1.795-8.507-4.744l-12.429-20.116c35.29-7.101 83.21-11.611 136.28-12.001z"/><path d="m460.689 421.195c0 23.02-91.64 41.68-204.69 41.68-1.73 0-3.46 0-5.18-.01l8.443-18.255c1.279-2.765 4.047-4.535 7.093-4.535h41.093c3.115 0 5.932-1.85 7.171-4.707l2.199-5.075c1.239-2.858 4.056-4.707 7.171-4.707h17.245c2.071 0 4.058.822 5.523 2.286l4.123 4.118c1.465 1.464 3.452 2.286 5.523 2.286h6.748c3.293 0 6.232-2.064 7.351-5.161l2.003-5.546c1.368-3.79-.368-7.998-4.011-9.72l-13.26-6.268c-2.733-1.292-4.475-4.043-4.475-7.066 0-3.695 2.588-6.885 6.204-7.647l22.976-4.842c49.08 7.609 80.75 19.639 80.75 33.169z"/><path d="m381.705 154.831c0-70.608-58.214-127.619-129.264-125.656-67.551 1.866-121.874 57.562-122.146 125.139-.108 26.764 8.152 51.59 22.31 72.02 16.329 23.563 30.615 48.477 42.447 74.589l51.839 114.401c3.548 7.83 14.669 7.83 18.217 0l52.234-115.272c11.783-26.004 26.238-50.665 42.389-74.206 13.861-20.204 21.974-44.661 21.974-71.015z"/></g><path d="m449.37 401.778c-9.133-4.82-22.174-9.203-38.762-13.028-31.782-7.328-74.841-12.162-121.762-13.697l33.05-72.937c11.034-24.349 24.758-48.372 41.957-73.44 12.009-17.505 19.62-37.896 22.009-58.972.311-2.744-1.661-5.221-4.405-5.531-2.74-.322-5.22 1.661-5.531 4.404-2.206 19.456-9.232 38.281-20.318 54.44-17.535 25.559-31.541 50.082-42.819 74.972l-52.235 115.271c-1.235 2.725-3.798 2.936-4.555 2.936-.756 0-3.319-.212-4.554-2.936l-51.839-114.4c-11.711-25.846-26.142-51.205-42.892-75.374-14.112-20.364-21.52-44.276-21.419-69.151.126-31.384 12.351-61.123 34.422-83.74 22.075-22.62 51.502-35.555 82.862-36.421 30.441-.836 59.795 9.68 82.677 29.622 22.659 19.748 37.075 46.98 40.594 76.68.325 2.742 2.81 4.713 5.554 4.377 2.742-.324 4.702-2.811 4.377-5.553-3.811-32.169-19.421-61.661-43.954-83.043-24.78-21.596-56.559-33.003-89.524-32.079-33.972.938-65.843 14.942-89.743 39.434-23.894 24.484-37.128 56.689-37.265 90.683-.108 26.936 7.915 52.831 23.201 74.888 16.407 23.676 30.539 48.508 42.002 73.806l51.839 114.4c2.462 5.434 7.697 8.81 13.662 8.81 5.965 0 11.201-3.376 13.663-8.81l14.712-32.467c47.901 1.361 91.887 6.172 123.987 13.573 46 10.607 47.328 21.496 47.328 22.703 0 3.342-4.955 7.723-13.254 11.718-9.797 4.716-24.561 9.161-42.695 12.854-38.342 7.807-89.39 12.106-143.739 12.106s-105.397-4.3-143.739-12.106c-44.166-8.993-55.95-19.677-55.95-24.571 0-4.821 10.303-13.145 39.339-20.74 26.994-7.06 65.2-12.22 107.578-14.529 2.757-.15 4.871-2.507 4.721-5.265-.15-2.757-2.511-4.878-5.265-4.72-26.113 1.423-156.373 10.292-156.373 45.254 0 14.165 21.518 25.73 63.955 34.37 38.979 7.936 90.735 12.308 145.734 12.308s106.755-4.371 145.734-12.308c42.437-8.641 63.955-20.205 63.955-34.37-.002-7.173-5.492-13.706-16.32-19.421z" fill="#2626bc"/><g><ellipse cx="255.559" cy="155.761" fill="#6583fe" rx="97.448" ry="97.448" transform="matrix(.707 -.707 .707 .707 -35.288 226.329)"/><g><g><path d="m310.294 216.921h-108.589c-3.792 0-6.866-3.074-6.866-6.866v-108.588c0-3.792 3.074-6.866 6.866-6.866h108.588c3.792 0 6.866 3.074 6.866 6.866v108.588c.001 3.792-3.073 6.866-6.865 6.866z" fill="#fff"/><path d="m212.004 111.766h87.991v87.99h-87.991z" fill="#6583fe" transform="matrix(0 1 -1 0 411.76 -100.239)"/></g><path d="m248.477 87.921h17.165v133.679h-17.165z" fill="#fff" transform="matrix(.707 .707 -.707 .707 184.723 -136.44)"/></g></g></g><g fill="#6583fe"><path d="m448.486 370.274c-1.28 0-2.559-.488-3.536-1.465l-5.964-5.964-5.964 5.964c-1.953 1.953-5.118 1.953-7.071 0-1.953-1.952-1.953-5.118 0-7.07l9.5-9.5c1.953-1.953 5.118-1.953 7.071 0l9.5 9.5c1.953 1.952 1.953 5.118 0 7.07-.977.977-2.256 1.465-3.536 1.465z"/><path d="m374.569 354.853c-3.713 0-7.426-1.413-10.253-4.24-5.654-5.653-5.654-14.853 0-20.506 5.653-5.655 14.853-5.654 20.506 0 5.654 5.653 5.654 14.853 0 20.506-2.826 2.827-6.54 4.24-10.253 4.24zm0-18.991c-1.153 0-2.305.439-3.182 1.315-1.755 1.755-1.755 4.61 0 6.365 1.753 1.754 4.609 1.754 6.364 0 1.755-1.755 1.755-4.61 0-6.365-.877-.877-2.029-1.315-3.182-1.315z"/><path d="m100.828 145.98c-3.713 0-7.427-1.413-10.253-4.24-5.654-5.653-5.654-14.853 0-20.506 5.653-5.653 14.853-5.653 20.506 0 5.654 5.653 5.654 14.852 0 20.506-2.827 2.827-6.541 4.24-10.253 4.24zm-.001-18.991c-1.152 0-2.305.438-3.182 1.315-1.755 1.755-1.755 4.61 0 6.365 1.754 1.754 4.61 1.753 6.364 0 1.755-1.755 1.755-4.61 0-6.365-.877-.877-2.029-1.315-3.182-1.315z"/><path d="m100.827 183.911c-1.28 0-2.559-.488-3.536-1.465l-5.964-5.964-5.964 5.964c-1.953 1.953-5.118 1.953-7.071 0-1.953-1.952-1.953-5.118 0-7.07l9.5-9.5c1.953-1.953 5.118-1.953 7.071 0l9.5 9.5c1.953 1.952 1.953 5.118 0 7.07-.977.977-2.256 1.465-3.536 1.465z"/><path d="m415.13 95.273c-1.28 0-2.559-.488-3.536-1.465l-5.964-5.964-5.964 5.964c-1.953 1.953-5.118 1.953-7.071 0-1.953-1.952-1.953-5.118 0-7.07l9.5-9.5c1.953-1.953 5.118-1.953 7.071 0l9.5 9.5c1.953 1.952 1.953 5.118 0 7.07-.977.977-2.256 1.465-3.536 1.465z"/></g></g></g></svg>